<svg viewBox="0 0 512 512" xml:space="preserve" xmlns="http://www.w3.org/2000/svg"><path fill="#FEB756" d="M41.65 425.34 210.99 256 41.65 86.663 118.31 10l246 246-246 246z"/><path d="M118.31 512a9.966 9.966 0 0 1-7.071-2.929l-76.663-76.662a10.001 10.001 0 0 1 0-14.142l162.27-162.27-162.27-162.27a10 10 0 0 1 0-14.142l76.663-76.663c3.905-3.905 10.237-3.905 14.143 0l246 246c3.905 3.905 3.905 10.237 0 14.143l-246 246a9.973 9.973 0 0 1-7.072 2.928zm-62.521-86.662 62.521 62.521 231.86-231.86-231.86-231.86L55.789 86.66l162.27 162.27c3.905 3.905 3.905 10.237 0 14.143l-162.27 162.27z"/><path d="M388.92 347.42a9.966 9.966 0 0 1-7.071-2.929c-3.905-3.905-3.905-10.237 0-14.142l74.354-74.354-100.73-100.73c-3.905-3.905-3.905-10.237 0-14.143 3.905-3.904 10.237-3.904 14.143 0l107.8 107.8a10.001 10.001 0 0 1 0 14.142l-81.425 81.424a9.97 9.97 0 0 1-7.072 2.93zM362.55 373.8a9.966 9.966 0 0 1-7.071-2.929c-3.905-3.905-3.905-10.237 0-14.143l.313-.313c3.905-3.905 10.237-3.905 14.143 0 3.905 3.905 3.905 10.237 0 14.143l-.313.313a9.97 9.97 0 0 1-7.072 2.929zM276.54 229.41a9.97 9.97 0 0 1-7.071-2.929l-75.902-75.902c-3.905-3.905-3.905-10.237 0-14.143 3.905-3.905 10.237-3.905 14.143 0l75.902 75.902c3.905 3.905 3.905 10.237 0 14.143a9.972 9.972 0 0 1-7.072 2.929zM177.64 130.51a9.966 9.966 0 0 1-7.071-2.929l-.092-.092c-3.905-3.905-3.905-10.237 0-14.143 3.905-3.905 10.237-3.905 14.143 0l.092.092c3.905 3.905 3.905 10.237 0 14.143a9.976 9.976 0 0 1-7.072 2.929z"/></svg>