<svg xmlns="http://www.w3.org/2000/svg" xml:space="preserve" viewBox="0 0 512 512"><path fill="#feb756" d="M41.65 425.34 210.99 256 41.65 86.663 118.31 10l246 246-246 246Z"/><path d="M118.31 512a9.97 9.97 0 0 1-7.071-2.929l-76.663-76.662a10 10 0 0 1 0-14.142l162.27-162.27-162.27-162.27a10 10 0 0 1 0-14.142l76.663-76.663C115.144-.983 121.476-.983 125.382 2.922l246 246c3.905 3.905 3.905 10.237 0 14.143l-246 246a9.97 9.97 0 0 1-7.072 2.928Zm-62.521-86.662 62.521 62.521 231.86-231.86-231.86-231.86L55.789 86.66l162.27 162.27c3.905 3.905 3.905 10.237 0 14.143l-162.27 162.27Z"/><path d="M388.92 347.42a9.97 9.97 0 0 1-7.071-2.929c-3.905-3.905-3.905-10.237 0-14.142l74.354-74.354-100.73-100.73c-3.905-3.905-3.905-10.237 0-14.143C359.378 137.218 365.71 137.218 369.616 141.122l107.8 107.8a10 10 0 0 1 0 14.142l-81.425 81.424a9.97 9.97 0 0 1-7.072 2.93ZM362.55 373.8a9.97 9.97 0 0 1-7.071-2.929c-3.905-3.905-3.905-10.237 0-14.143l.313-.313C359.697 352.51 366.029 352.51 369.935 356.415c3.905 3.905 3.905 10.237 0 14.143l-.313.313a9.97 9.97 0 0 1-7.072 2.929M276.54 229.41a9.97 9.97 0 0 1-7.071-2.929l-75.902-75.902c-3.905-3.905-3.905-10.237 0-14.143 3.905-3.905 10.237-3.905 14.143 0l75.902 75.902c3.905 3.905 3.905 10.237 0 14.143a9.97 9.97 0 0 1-7.072 2.929M177.64 130.51a9.97 9.97 0 0 1-7.071-2.929l-.092-.092c-3.905-3.905-3.905-10.237 0-14.143C174.382 109.441 180.714 109.441 184.62 113.346l.092.092c3.905 3.905 3.905 10.237 0 14.143a9.98 9.98 0 0 1-7.072 2.929"/></svg>