<?xml version="1.0" encoding="UTF-8"?>
<svg enable-background="new 0 0 512 512" version="1.1" viewBox="0 0 512 512" xml:space="preserve" xmlns="http://www.w3.org/2000/svg">
<polygon points="41.65 425.34 210.99 256 41.65 86.663 118.31 10 364.31 256 118.31 502" fill="#FEB756"/>
<path d="m118.31 512c-2.559 0-5.119-0.976-7.071-2.929l-76.663-76.662c-1.875-1.875-2.929-4.419-2.929-7.071s1.054-5.196 2.929-7.071l162.27-162.27-162.27-162.27c-1.875-1.875-2.929-4.418-2.929-7.071s1.054-5.196 2.929-7.071l76.663-76.663c3.905-3.905 10.237-3.905 14.143 0l246 246c3.905 3.905 3.905 10.237 0 14.143l-246 246c-1.953 1.952-4.513 2.928-7.072 2.928zm-62.521-86.662 62.521 62.521 231.86-231.86-231.86-231.86-62.521 62.521 162.27 162.27c3.905 3.905 3.905 10.237 0 14.143l-162.27 162.27z"/>
<path d="m388.92 347.42c-2.56 0-5.118-0.976-7.071-2.929-3.905-3.905-3.905-10.237 0-14.142l74.354-74.354-100.73-100.73c-3.905-3.905-3.905-10.237 0-14.143 3.905-3.904 10.237-3.904 14.143 0l107.8 107.8c1.875 1.875 2.929 4.419 2.929 7.071s-1.054 5.196-2.929 7.071l-81.425 81.424c-1.953 1.953-4.512 2.93-7.072 2.93z"/>
<path d="m362.55 373.8c-2.559 0-5.119-0.976-7.071-2.929-3.905-3.905-3.905-10.237 0-14.143l0.313-0.313c3.905-3.905 10.237-3.905 14.143 0 3.905 3.905 3.905 10.237 0 14.143l-0.313 0.313c-1.953 1.953-4.513 2.929-7.072 2.929z"/>
<path d="m276.54 229.41c-2.559 0-5.119-0.977-7.071-2.929l-75.902-75.902c-3.905-3.905-3.905-10.237 0-14.143 3.905-3.905 10.237-3.905 14.143 0l75.902 75.902c3.905 3.905 3.905 10.237 0 14.143-1.954 1.953-4.513 2.929-7.072 2.929z"/>
<path d="m177.64 130.51c-2.559 0-5.119-0.976-7.071-2.929l-0.092-0.092c-3.905-3.905-3.905-10.237 0-14.143 3.905-3.905 10.237-3.905 14.143 0l0.092 0.092c3.905 3.905 3.905 10.237 0 14.143-1.954 1.952-4.513 2.929-7.072 2.929z"/></svg>
